<svg xmlns="http://www.w3.org/2000/svg" xmlns:xlink="http://www.w3.org/1999/xlink" width="1000" zoomAndPan="magnify" viewBox="0 0 750 749.999995" height="1000" preserveAspectRatio="xMidYMid meet" version="1.0"><path fill="#000000" d="M 361.703125 31.78125 C 354.175781 34.472656 348.046875 40.089844 344.074219 47.9375 C 342.863281 50.339844 340.582031 56.269531 339.003906 61.117188 C 334.660156 74.496094 333.296875 76.027344 319.335938 83.175781 C 307.75 89.105469 303.222656 94.835938 303.222656 103.5625 C 303.222656 106.613281 305.027344 112.746094 305.703125 111.992188 C 305.847656 111.828125 305.722656 109.882812 305.425781 107.667969 C 304.605469 101.546875 306.046875 96.945312 309.84375 93.566406 C 311.542969 92.058594 317.914062 88.300781 324.007812 85.21875 C 342.804688 75.714844 345.824219 73.101562 352.355469 60.675781 C 359.042969 47.957031 361.761719 45.410156 368.652344 45.410156 C 372.417969 45.410156 376.382812 47.347656 382.101562 51.984375 C 384.59375 54.007812 386.792969 55.664062 386.984375 55.664062 C 387.175781 55.664062 387.894531 54.183594 388.585938 52.378906 C 391.109375 45.773438 388.414062 38.59375 381.847656 34.429688 C 376.339844 30.9375 367.371094 29.757812 361.703125 31.78125 M 361.820312 35.3125 C 353.839844 38.375 347.429688 47.234375 343.914062 60.058594 C 342.863281 63.886719 341.664062 67.839844 341.242188 68.847656 C 339.46875 73.097656 345.074219 65.222656 349.507812 57.238281 C 356.871094 43.976562 361.703125 40.6875 371.257812 42.433594 C 376.796875 43.445312 380.230469 45.097656 383.972656 48.558594 L 386.71875 51.101562 L 386.714844 49.171875 C 386.699219 42.558594 382.234375 36.789062 375.597656 34.816406 C 370.53125 33.3125 366.667969 33.453125 361.820312 35.3125 M 391.84375 37.546875 C 391.84375 37.707031 393.492188 38.90625 395.507812 40.210938 C 399.734375 42.949219 402.226562 46.796875 403.84375 53.070312 C 404.464844 55.46875 404.875 57.527344 404.757812 57.644531 C 404.640625 57.765625 403.503906 56.253906 402.230469 54.292969 C 399.96875 50.800781 394.773438 46.089844 394.773438 47.527344 C 394.773438 47.925781 395.113281 48.460938 395.527344 48.71875 C 395.9375 48.972656 397.402344 51.414062 398.773438 54.140625 C 400.148438 56.871094 402.0625 60.058594 403.027344 61.226562 C 403.992188 62.398438 406.199219 65.457031 407.929688 68.03125 L 411.074219 72.703125 L 407.867188 70.800781 C 402.210938 67.445312 400.023438 65.28125 396.816406 59.871094 C 393.199219 53.773438 392.171875 54.765625 394.808594 61.8125 C 396.789062 67.101562 399.738281 70.054688 406.984375 73.996094 C 414.394531 78.027344 416.417969 79.96875 418.210938 84.757812 C 420.582031 91.097656 420.199219 95.78125 416.671875 103.4375 C 413.566406 110.175781 412.578125 114.335938 413.347656 117.40625 C 413.59375 118.382812 415.324219 121.414062 417.195312 124.144531 C 419.664062 127.753906 420.734375 130.132812 421.113281 132.855469 C 421.582031 136.273438 421.679688 136.417969 422.207031 134.539062 C 423.265625 130.785156 422.230469 126.5625 419.050781 121.652344 C 417.316406 118.96875 416.015625 116.074219 416.015625 114.890625 C 416.015625 113.753906 417.367188 109.4375 419.023438 105.300781 C 424.332031 92.019531 423.898438 88.351562 415.285156 73.613281 C 410.285156 65.058594 408.6875 61.132812 406.140625 51.140625 C 404.324219 44.015625 400.367188 39.824219 393.492188 37.753906 C 392.585938 37.480469 391.84375 37.386719 391.84375 37.546875 M 365.445312 53.015625 C 362.085938 55.296875 359.460938 60.257812 357.0625 68.847656 C 353.292969 82.34375 350.0625 85.378906 332.152344 92.285156 C 319.699219 97.085938 313.175781 104.171875 311.613281 114.589844 C 311.078125 118.148438 311.695312 123.046875 312.675781 123.046875 C 313.003906 123.046875 313.46875 121.398438 313.707031 119.386719 C 314.582031 111.992188 319.285156 104.59375 325.714844 100.492188 C 327.644531 99.261719 332.628906 96.902344 336.789062 95.253906 C 347.464844 91.015625 350.992188 89.097656 353.628906 86.097656 C 356.78125 82.507812 357.503906 80.917969 361.074219 69.742188 C 363.699219 61.53125 364.660156 59.488281 367.238281 56.640625 C 369.984375 53.609375 370.613281 53.265625 373.503906 53.265625 C 376.398438 53.265625 376.582031 53.167969 375.355469 52.269531 C 373.167969 50.671875 368.363281 51.035156 365.445312 53.015625 M 384.121094 73.574219 C 383.132812 74.5625 382.324219 76.109375 382.324219 77.007812 C 382.324219 78.601562 382.378906 78.589844 384.488281 76.570312 C 386.167969 74.960938 387.515625 74.429688 390.53125 74.195312 C 392.664062 74.03125 395.234375 73.699219 396.238281 73.460938 L 398.070312 73.03125 L 396.238281 72.476562 C 395.234375 72.171875 392.5 71.890625 390.164062 71.851562 C 386.578125 71.789062 385.640625 72.054688 384.121094 73.574219 M 362.59375 73.792969 C 359.871094 75.175781 358.316406 77.585938 360.800781 76.574219 C 363.925781 75.296875 368.367188 75.246094 370.222656 76.460938 C 371.980469 77.613281 372.070312 77.601562 372.070312 76.230469 C 372.070312 74.4375 369.421875 72.507812 366.964844 72.511719 C 365.945312 72.511719 363.976562 73.089844 362.59375 73.792969 M 406.714844 79.132812 C 409.738281 82.664062 411.242188 87.484375 410.65625 91.757812 C 410.421875 93.472656 408.851562 98.308594 407.167969 102.507812 C 402.078125 115.199219 402.460938 122.5625 408.515625 128.277344 C 411.140625 130.757812 416.746094 134.390625 416.746094 133.609375 C 416.746094 133.40625 414.964844 131.492188 412.78125 129.363281 C 406.074219 122.816406 405.609375 116.269531 410.855469 102.402344 C 415.332031 90.582031 414.660156 84.03125 408.414062 78.546875 C 404.652344 75.242188 403.675781 75.578125 406.714844 79.132812 M 399.824219 90.980469 C 398.722656 94.890625 398.558594 100.488281 399.535156 100.785156 C 399.9375 100.90625 401.539062 99.359375 403.09375 97.34375 C 405.863281 93.757812 405.882812 93.691406 404.011719 94.160156 C 402.1875 94.621094 402.097656 94.507812 402.097656 91.675781 C 402.097656 87.578125 400.882812 87.207031 399.824219 90.980469 M 346.945312 95.941406 C 343.710938 105.046875 335.425781 113.582031 319.09375 124.640625 C 308.988281 131.480469 304 136.207031 301.324219 141.488281 C 297.320312 149.390625 298.28125 156.855469 304.082031 162.871094 C 306.015625 164.878906 307.792969 166.328125 308.03125 166.089844 C 308.269531 165.851562 307.289062 163.949219 305.851562 161.863281 C 297.613281 149.882812 302.308594 139.15625 320.433594 128.546875 C 337.011719 118.84375 346.707031 108.617188 348.257812 99.203125 C 348.519531 97.613281 348.898438 95.40625 349.105469 94.300781 C 349.726562 90.972656 348.335938 92.027344 346.945312 95.941406 M 355.957031 96.652344 C 355.957031 106.757812 361.265625 113.707031 372.203125 117.925781 L 378.121094 120.210938 L 382.238281 118.566406 C 384.5 117.660156 387.046875 116.476562 387.898438 115.9375 C 389.390625 114.988281 389.453125 115.097656 389.839844 119.183594 C 390.71875 128.585938 395.800781 136.675781 403.042969 140.210938 C 405.824219 141.570312 408.949219 142.28125 414.550781 142.839844 C 429 144.277344 435.296875 146.695312 438.734375 152.117188 C 441.710938 156.8125 443.359375 162.253906 446.757812 178.632812 C 450.464844 196.492188 451.65625 200.492188 457.578125 214.964844 C 461.488281 224.53125 462.433594 227.640625 462.71875 231.882812 C 463.050781 236.816406 462.960938 237.203125 460.9375 239.464844 C 459.492188 241.085938 457.195312 242.390625 453.757812 243.550781 L 448.703125 245.25 L 446.617188 250.980469 C 443.511719 259.519531 434.300781 278.050781 427.988281 288.464844 C 420.292969 301.15625 416.015625 310.144531 416.015625 313.621094 C 416.015625 315.167969 417.945312 322.605469 420.304688 330.152344 C 422.664062 337.699219 425.367188 346.808594 426.308594 350.402344 C 427.25 353.992188 428.136719 356.582031 428.277344 356.152344 C 428.6875 354.933594 425.035156 336.699219 422.519531 327.394531 C 418.460938 312.378906 418.5625 313.101562 419.90625 308.878906 C 421.195312 304.824219 425.804688 296.300781 433.855469 283.082031 C 439.277344 274.1875 447.121094 258.507812 449.703125 251.402344 C 451.027344 247.757812 451.683594 246.824219 452.917969 246.820312 C 458.128906 246.808594 464.398438 242.792969 466.296875 238.253906 C 468.550781 232.855469 467.363281 227.226562 460.65625 211.496094 C 455.441406 199.265625 454.207031 195.160156 450.8125 178.710938 C 446.152344 156.140625 443.410156 149.476562 436.988281 145.113281 C 432.664062 142.171875 429.800781 141.335938 421.507812 140.582031 C 407.738281 139.328125 400.671875 136.453125 396.949219 130.582031 C 392.945312 124.269531 392.511719 117.375 395.519531 107.785156 C 397.777344 100.570312 397.375 99.394531 394.359375 104.414062 C 392.921875 106.804688 390.875 109.679688 389.808594 110.800781 C 387.828125 112.878906 379.96875 117.1875 378.15625 117.1875 C 377.605469 117.1875 375.234375 116.21875 372.886719 115.035156 C 366.855469 111.988281 362.671875 107.027344 359.320312 98.945312 C 357.800781 95.28125 356.425781 92.285156 356.257812 92.285156 C 356.09375 92.285156 355.957031 94.25 355.957031 96.652344 M 376.773438 93.269531 C 376.070312 95.101562 376.757812 97.777344 377.929688 97.777344 C 378.691406 97.777344 379.027344 97.011719 379.027344 95.277344 C 379.027344 92.679688 377.515625 91.332031 376.773438 93.269531 M 377.988281 102.539062 C 374.117188 102.746094 370.976562 103.246094 370.832031 103.679688 C 370.503906 104.671875 375.21875 106.933594 377.613281 106.933594 C 379.949219 106.933594 383.875 105.300781 385.105469 103.816406 C 386.421875 102.226562 385.835938 102.121094 377.988281 102.539062 M 362.878906 116.1875 C 367.355469 133.851562 362.015625 143.476562 345.417969 147.644531 C 340.585938 148.859375 339.433594 149.742188 341.859375 150.375 C 343.0625 150.6875 343.0625 150.714844 341.867188 150.792969 C 340.691406 150.875 340.707031 151.15625 342.105469 154.722656 C 346.664062 166.355469 354.585938 181.941406 361 191.894531 C 362.425781 194.109375 363.644531 196.015625 363.707031 196.132812 C 363.773438 196.25 366.085938 193.941406 368.847656 191.007812 C 383.582031 175.351562 406.160156 153.902344 416.210938 146.011719 C 418.730469 144.035156 418.726562 143.550781 416.199219 143.566406 C 414.730469 143.574219 412.503906 145.085938 407.957031 149.171875 C 399.914062 156.402344 388.289062 167.699219 375.058594 181.152344 C 369.25 187.0625 364.414062 191.894531 364.316406 191.894531 C 363.027344 191.894531 344.238281 154.152344 344.238281 151.554688 C 344.238281 151.261719 346.46875 150.34375 349.191406 149.515625 C 357.859375 146.882812 364.28125 140.972656 366.335938 133.738281 C 367.28125 130.410156 367.511719 121.546875 366.730469 118.558594 C 366.453125 117.5 365.355469 116.0625 364.289062 115.363281 L 362.347656 114.09375 Z M 346.433594 117.9375 C 346.433594 118.347656 345.058594 120.179688 343.371094 122.007812 C 341.0625 124.515625 337.667969 126.667969 329.574219 130.769531 C 317.058594 137.109375 312.589844 141.070312 309.929688 148.179688 C 308.097656 153.074219 307.890625 155.167969 309.554688 151.976562 C 313.507812 144.398438 318.035156 140.609375 331.054688 133.976562 C 339.683594 129.582031 344.675781 125.179688 346.574219 120.300781 C 347.238281 118.589844 347.480469 117.1875 347.109375 117.1875 C 346.738281 117.1875 346.4375 117.523438 346.4375 117.9375 M 355.226562 128.65625 C 351.273438 136.101562 345.601562 140.824219 333.007812 147.15625 C 321.304688 153.039062 317.75 155.59375 315.742188 159.554688 C 314.996094 161.027344 312.988281 167.175781 311.277344 173.21875 C 307.074219 188.078125 302.15625 202.082031 298.777344 208.828125 C 297.238281 211.894531 295.28125 216.480469 294.429688 219.011719 C 293.058594 223.070312 292.980469 224.042969 293.746094 227.242188 C 295.121094 232.976562 299.511719 237.191406 305.238281 238.28125 C 308.226562 238.847656 308.339844 237.78125 305.417969 236.570312 C 302.554688 235.386719 299.214844 231.542969 298.089844 228.136719 C 296.777344 224.148438 297.65625 220.582031 302.167969 211.582031 C 306.691406 202.5625 313.144531 184.273438 316.027344 172.324219 C 318.46875 162.179688 319.054688 160.765625 321.769531 158.480469 C 323.003906 157.441406 328.648438 154.296875 334.308594 151.488281 C 348.0625 144.671875 353.121094 139.644531 356.699219 129.25 C 358.773438 123.214844 358.226562 122.996094 355.226562 128.65625 M 422.777344 175.214844 C 418.097656 187.054688 416.835938 192.003906 415.277344 204.5625 C 413.785156 216.601562 412.652344 220.65625 406.21875 236.9375 C 404.363281 241.632812 403.609375 244.691406 403.601562 247.558594 C 403.582031 252.734375 404.636719 254.640625 405.363281 250.742188 C 405.652344 249.191406 407.0625 245.125 408.492188 241.699219 C 409.925781 238.273438 411.691406 233.660156 412.417969 231.445312 C 413.414062 228.414062 413.75 227.917969 413.777344 229.4375 C 413.839844 232.578125 416.660156 237.855469 419.542969 240.234375 C 422.71875 242.851562 423.265625 242.578125 421.296875 239.359375 C 419 235.601562 417.472656 229.5 417.019531 222.289062 C 416.535156 214.492188 419.46875 195.21875 423.710938 178.382812 C 425.117188 172.789062 426.152344 168.097656 426.011719 167.953125 C 425.867188 167.808594 424.414062 171.078125 422.777344 175.214844 M 327.042969 183.289062 C 324.042969 196.886719 324.78125 205.277344 330.398438 221.558594 C 333.175781 229.601562 333.464844 231.136719 333.796875 239.683594 C 333.996094 244.820312 334.425781 249.023438 334.75 249.023438 C 336.082031 249.023438 337.097656 240.910156 336.738281 233.179688 C 336.414062 226.21875 335.988281 224.183594 333.367188 216.984375 C 328.800781 204.441406 327.824219 198.542969 328.40625 186.957031 C 328.675781 181.613281 328.777344 177.246094 328.632812 177.246094 C 328.492188 177.246094 327.773438 179.964844 327.042969 183.289062 M 436.773438 195.625 C 438.851562 203.277344 438.050781 208.84375 432.789062 223.335938 C 430.824219 228.746094 429.328125 233.285156 429.464844 233.417969 C 429.988281 233.941406 436.894531 221.40625 438.601562 216.84375 C 440.882812 210.734375 441.210938 200.898438 439.253906 197.25 C 437.613281 194.199219 436.117188 193.21875 436.773438 195.625 M 314.957031 222.691406 C 314.988281 226.035156 319.441406 234.09375 324.527344 240.007812 C 325.632812 241.292969 326.871094 242.9375 327.277344 243.664062 C 327.683594 244.390625 328.195312 244.800781 328.414062 244.582031 C 329.058594 243.9375 325.027344 236.007812 320.433594 228.882812 C 315.171875 220.726562 314.9375 220.457031 314.957031 222.691406 M 344.238281 221.90625 C 344.238281 223.933594 353.433594 236.410156 354.292969 235.550781 C 354.472656 235.371094 352.945312 232.613281 350.898438 229.425781 C 347 223.347656 344.238281 220.230469 344.238281 221.90625 M 385.011719 232.839844 C 379.910156 238.039062 375.730469 242.511719 375.730469 242.777344 C 375.730469 243.90625 380.429688 239.753906 387.359375 232.5 C 393.710938 225.84375 395.644531 223.390625 394.535156 223.390625 C 394.402344 223.390625 390.117188 227.640625 385.011719 232.839844 M 586.667969 235.183594 C 569.910156 237.726562 546.394531 249.542969 525.878906 265.726562 C 516.089844 273.449219 494.582031 295.222656 485.585938 306.519531 C 461.550781 336.699219 445.09375 370.070312 438.253906 402.496094 C 436.519531 410.730469 436.253906 413.632812 436.269531 424.4375 C 436.285156 434.847656 436.546875 437.851562 437.867188 442.75 C 442.796875 461.054688 454.570312 473.703125 470.554688 477.867188 C 480.964844 480.578125 494.625 480.03125 507.40625 476.394531 C 515.816406 474 529.675781 467.035156 538.289062 460.878906 C 546.894531 454.726562 561.773438 440.460938 567.371094 432.996094 C 568.90625 430.945312 570.445312 428.898438 571.988281 426.855469 C 572.207031 426.574219 572.386719 430.527344 572.386719 435.644531 C 572.386719 446.363281 573.46875 450.257812 577.75 455 C 581.929688 459.625 585.320312 461.039062 592.164062 461.007812 C 601.527344 460.964844 608.878906 457.332031 620.042969 447.222656 C 625.234375 442.519531 633.804688 432.414062 639.050781 424.804688 C 640.578125 422.589844 641.601562 421.414062 641.320312 422.191406 C 639.441406 427.421875 637.71875 437.753906 637.652344 444.214844 C 637.585938 450.515625 637.8125 452.023438 639.292969 455.027344 C 642.429688 461.402344 649.828125 463.84375 657.644531 461.085938 C 665.070312 458.464844 677.964844 447.070312 688.753906 433.59375 C 693.820312 427.261719 706.3125 408.875 708.585938 404.402344 C 710.210938 401.207031 709.574219 398.613281 707.011719 397.96875 C 704.746094 397.402344 704.421875 397.742188 698.210938 407.226562 C 684.695312 427.851562 667.453125 447.019531 660.554688 449.089844 C 658.238281 449.78125 657.476562 449.71875 655.929688 448.703125 C 653.289062 446.976562 652.9375 444.484375 654.371094 437.707031 C 657.542969 422.679688 667.441406 398.980469 681.09375 373.714844 C 686.257812 364.15625 686.714844 361.378906 683.53125 358.871094 C 680.070312 356.140625 674.265625 357.894531 671.351562 362.546875 L 670.203125 364.378906 L 670.179688 362.183594 C 670.136719 358.707031 666.148438 352.5 662.449219 350.15625 C 657.613281 347.089844 653.558594 346.203125 646.195312 346.609375 C 641.554688 346.863281 638.246094 347.539062 634.285156 349.046875 C 616.4375 355.828125 595.800781 377.15625 580.820312 404.296875 C 572.25 419.820312 553.679688 439.316406 536.480469 450.832031 C 526.53125 457.496094 512.167969 464.453125 503.972656 466.578125 C 495.859375 468.683594 485.214844 468.367188 478.675781 465.832031 C 461.753906 459.265625 455.78125 437.78125 462.167969 406.441406 C 475.132812 342.824219 541.648438 256.988281 588.433594 243.507812 C 595.011719 241.613281 603.464844 242.246094 608.558594 245.019531 C 610.714844 246.195312 613.292969 248.21875 614.285156 249.519531 C 619.84375 256.808594 619.363281 270.449219 612.976562 286.742188 C 607.601562 300.453125 599.898438 311.855469 588.65625 322.746094 C 580.039062 331.09375 576.089844 333.875 569.011719 336.578125 C 566.132812 337.679688 563.605469 339.148438 563.160156 339.980469 C 562.101562 341.957031 562.902344 344.742188 564.824219 345.773438 C 567.097656 346.988281 575.363281 346.171875 579.613281 344.3125 C 601.210938 334.863281 624.292969 302.300781 628.472656 275.390625 C 629.632812 267.929688 628.988281 257.75 627.042969 252.683594 C 624.101562 245.042969 617.183594 238.414062 609.769531 236.136719 C 605.179688 234.722656 593 234.222656 586.671875 235.183594 M 439.417969 236.085938 C 436.164062 237.269531 430.152344 241.363281 429.027344 243.167969 C 428.367188 244.226562 427.871094 244.363281 426.796875 243.785156 C 426.035156 243.378906 425.308594 243.15625 425.183594 243.289062 C 425.058594 243.421875 424.234375 247.15625 423.355469 251.585938 C 421.921875 258.800781 414.191406 284.179688 413.425781 284.179688 C 413.257812 284.179688 413.285156 283.273438 413.480469 282.164062 C 413.878906 279.925781 405.289062 257.777344 403.835938 257.292969 C 401.898438 256.644531 402.347656 259.785156 405.304688 267.511719 C 407.042969 272.046875 409.230469 277.964844 410.164062 280.667969 C 411.101562 283.367188 412.144531 285.410156 412.476562 285.203125 C 412.8125 284.996094 413.085938 285.027344 413.085938 285.269531 C 413.085938 285.945312 405.734375 300.527344 404.855469 301.59375 C 404.433594 302.105469 404.246094 302.683594 404.441406 302.878906 C 405.152344 303.589844 414.453125 289.535156 416.332031 284.910156 C 418.300781 280.066406 424.578125 258.71875 426.300781 251 C 427.347656 246.320312 429.261719 244.304688 436.109375 240.664062 C 440.335938 238.417969 442.71875 238.324219 448.609375 240.167969 C 453.570312 241.726562 454.558594 241.515625 451.894531 239.46875 C 447.304688 235.941406 443.011719 234.777344 439.417969 236.085938 M 311.03125 237.128906 C 309.734375 239.28125 306.746094 254.675781 306.160156 262.207031 C 305.417969 271.808594 305.148438 297.878906 305.796875 297.230469 C 306.003906 297.023438 306.503906 292.269531 306.90625 286.671875 C 308.289062 267.425781 310.183594 254.664062 313.128906 244.785156 L 314.28125 240.914062 L 317.273438 242.589844 C 318.917969 243.507812 322.238281 246.40625 324.652344 249.023438 C 327.84375 252.480469 328.894531 253.28125 328.5 251.953125 C 327.628906 249.019531 325.335938 245.636719 322.570312 243.210938 C 319.59375 240.59375 311.507812 236.335938 311.03125 237.128906 M 332.707031 253.644531 C 324.691406 265.625 317.292969 282.574219 313.457031 297.730469 C 310.792969 308.25 309.789062 315.976562 312.265625 306.882812 C 317.402344 288.019531 325.695312 269.648438 335.640625 255.101562 C 337.621094 252.203125 339.03125 249.484375 338.769531 249.058594 C 337.707031 247.34375 336.113281 248.550781 332.707031 253.644531 M 340.574219 248.945312 C 344.019531 251.0625 353.25 252.089844 372.207031 252.472656 C 393.113281 252.894531 396.554688 252.636719 397.660156 250.574219 C 398.332031 249.320312 397.488281 249.257812 380.640625 249.320312 C 370.890625 249.359375 357.640625 249.136719 351.195312 248.832031 C 343.996094 248.488281 339.902344 248.53125 340.578125 248.945312 M 197.386719 252.0625 C 162.175781 255.140625 128.949219 267.167969 104.875 285.554688 C 96.632812 291.847656 85.875 303.308594 81.417969 310.546875 C 73.628906 323.195312 71.796875 336.132812 76.5625 344.886719 C 80.820312 352.707031 88.847656 355.882812 91.558594 350.820312 C 92.203125 349.617188 92.171875 348.960938 91.425781 347.957031 C 90.890625 347.238281 89.414062 345.277344 88.140625 343.59375 C 78.878906 331.367188 91.746094 307.710938 116.820312 290.863281 C 135.726562 278.160156 155.75 270.03125 180.175781 265.140625 C 211.085938 258.957031 234.792969 260.804688 244.886719 270.1875 C 249.390625 274.378906 251.230469 278.398438 251.734375 285.15625 C 252.78125 299.203125 243.570312 317.082031 227.402344 332.382812 C 212.535156 346.453125 193.335938 356.375 172.050781 360.980469 C 164.367188 362.644531 155.273438 363.742188 155.273438 363.003906 C 155.273438 362.300781 161.972656 349.0625 168.289062 337.28125 C 175.933594 323.03125 184.542969 308.164062 191.417969 297.363281 C 194.621094 292.328125 197.699219 287.121094 198.257812 285.789062 C 199.738281 282.25 198.835938 278.78125 195.722656 276.046875 C 193.394531 274 192.75 273.796875 189.554688 274.105469 C 183.582031 274.679688 183.316406 275.03125 169.167969 301.027344 C 148.574219 338.871094 120.648438 399.820312 114.558594 420.210938 L 112.542969 426.96875 L 107.355469 428.929688 C 84.6875 437.5 68.402344 449.222656 62.460938 461.242188 C 60.082031 466.050781 59.734375 467.429688 59.738281 471.96875 C 59.738281 475.976562 60.148438 478.015625 61.515625 480.835938 C 68.078125 494.367188 87.273438 501.269531 114.761719 499.980469 C 139.308594 498.828125 163.03125 492.292969 185.984375 480.355469 C 218.816406 463.277344 238.472656 441.753906 243.648438 417.214844 C 245.214844 409.796875 244.683594 397.316406 242.554688 391.480469 C 237.878906 378.652344 224.308594 368.089844 208.242188 364.773438 C 202.039062 363.492188 201.867188 363.40625 203.96875 362.582031 C 221.445312 355.710938 234.1875 347.59375 245.476562 336.132812 C 269.242188 312.007812 274.296875 281.449219 257.292969 264.714844 C 246.410156 254.003906 225.5625 249.601562 197.386719 252.0625 M 363.761719 273.375 C 363.066406 282.285156 363.179688 289.890625 364.015625 290.40625 C 364.492188 290.699219 364.746094 286.75 364.746094 279.097656 C 364.746094 272.628906 364.628906 267.335938 364.488281 267.335938 C 364.347656 267.335938 364.019531 270.054688 363.761719 273.375 M 349.460938 271.546875 C 346.363281 277.636719 339.328125 300.578125 339.96875 302.503906 C 340.109375 302.925781 342.433594 296.75 345.132812 288.78125 C 350.054688 274.257812 351.699219 268.800781 351.152344 268.800781 C 350.992188 268.800781 350.230469 270.035156 349.460938 271.546875 M 377.929688 285.046875 C 377.929688 286.398438 384.410156 317.207031 384.910156 318.238281 C 385.835938 320.140625 384.265625 310.683594 381.601562 298.328125 C 378.871094 285.660156 377.929688 282.253906 377.929688 285.046875 M 362.65625 317.503906 C 362.71875 326.722656 362.914062 329.585938 363.316406 327.027344 C 364.140625 321.734375 364.117188 306.710938 363.28125 305.421875 C 362.808594 304.691406 362.601562 308.757812 362.65625 317.503906 M 319.429688 347.214844 C 306.5625 349.5 294.566406 357.984375 281.824219 373.816406 C 269.75 388.816406 260.882812 404.957031 257.464844 418.148438 C 252.03125 439.109375 257.125 455.203125 271.421875 462.242188 C 277.4375 465.203125 286.765625 465.921875 294.765625 464.039062 C 311.265625 460.160156 333.007812 444.558594 349.5 424.765625 C 354.449219 418.824219 363.621094 405.085938 367.664062 397.558594 C 371 391.34375 370.90625 389.386719 367.226562 388.464844 C 364.875 387.871094 364.191406 388.566406 360.308594 395.507812 C 350.507812 413.023438 333.75 430.792969 315.453125 443.070312 C 304.992188 450.085938 295.835938 453.175781 287.546875 452.488281 C 277.902344 451.691406 273.125 442.628906 275.363281 429.375 L 276.242188 424.15625 L 287.449219 420.417969 C 305.5 414.402344 315.292969 408.890625 325.800781 398.835938 C 349.625 376.039062 350.855469 348.332031 328.109375 346.832031 C 325.5 346.660156 321.59375 346.832031 319.429688 347.214844 M 320.800781 357.585938 C 312.914062 361.484375 297.53125 379.324219 288.738281 394.773438 C 284.683594 401.894531 280.640625 410.429688 279.449219 414.367188 C 279.003906 415.851562 279.121094 415.953125 280.652344 415.363281 C 290.242188 411.671875 301.949219 404.855469 310.433594 398.019531 C 323.136719 387.785156 331.621094 374.945312 332.339844 364.859375 C 332.683594 360.089844 332.578125 359.609375 330.816406 357.847656 C 328.433594 355.46875 325.257812 355.386719 320.800781 357.585938 M 644.605469 357.894531 C 640.378906 359.738281 633.609375 364.6875 627.894531 370.117188 C 609.082031 387.988281 590.976562 420.738281 590.78125 437.253906 C 590.652344 448.265625 595.871094 451.8125 605.363281 447.167969 C 615.804688 442.058594 637.332031 416.617188 651.746094 392.347656 C 663.316406 372.867188 665.019531 362.714844 657.496094 358.125 C 654.660156 356.394531 648.304688 356.28125 644.605469 357.894531 M 172.484375 371.308594 C 170.472656 371.636719 164.65625 372.148438 159.566406 372.453125 L 150.308594 373 L 144.613281 384.4375 C 137.03125 399.660156 127.421875 421.453125 128.171875 421.730469 C 128.5 421.851562 130.695312 421.457031 133.046875 420.855469 C 138.59375 419.4375 151.382812 417.726562 161.214844 417.089844 C 169.933594 416.527344 172.117188 417.121094 172.117188 420.054688 C 172.117188 422.71875 169.265625 424.144531 162.417969 424.902344 C 149.753906 426.304688 132.667969 429.902344 125.976562 432.582031 C 123.347656 433.632812 122.984375 434.152344 120.996094 439.695312 C 119.816406 442.988281 118.269531 447.492188 117.558594 449.707031 C 115.910156 454.84375 114.617188 456.296875 111.695312 456.296875 C 107.042969 456.296875 105.972656 452.605469 107.921875 443.296875 C 108.449219 440.78125 108.742188 438.71875 108.566406 438.71875 C 107.199219 438.71875 89.015625 448.144531 85.382812 450.738281 C 79.753906 454.757812 73.914062 461.035156 71.855469 465.292969 C 69.070312 471.042969 70.160156 478.023438 74.464844 482.035156 C 88.113281 494.761719 128.707031 491.414062 163.695312 474.683594 C 194.480469 459.960938 216.050781 439.804688 224.320312 418.039062 C 226.4375 412.457031 226.621094 411.277344 226.652344 402.832031 C 226.683594 394.25 226.554688 393.414062 224.632812 389.5 C 220.949219 381.996094 212.652344 376.042969 201.289062 372.746094 C 195.351562 371.023438 179.195312 370.21875 172.484375 371.308594 M 445.070312 553.296875 C 437.089844 555.441406 432.515625 562.265625 434.375 569.242188 C 435.9375 575.113281 440.980469 578.382812 451.800781 580.554688 C 458.910156 581.980469 460.984375 583.421875 460.984375 586.929688 C 460.984375 590.261719 459.226562 592.171875 455.230469 593.179688 C 449.449219 594.632812 442.363281 592.300781 440.902344 588.460938 C 440.304688 586.890625 439.773438 586.667969 436.542969 586.667969 C 432.292969 586.667969 432.023438 587.316406 434.25 592.222656 C 436.546875 597.277344 441.320312 600.144531 448.871094 601 C 464.582031 602.777344 474.738281 588.265625 464.914062 578.078125 C 462.535156 575.613281 458.941406 574.171875 451.539062 572.71875 C 442.464844 570.933594 439.449219 567.332031 443.296875 562.867188 C 446.816406 558.792969 454.359375 559.140625 458.207031 563.550781 C 460.203125 565.84375 460.898438 566.160156 463.882812 566.160156 C 467.683594 566.160156 467.992188 565.570312 466.273438 561.5625 C 464.550781 557.546875 460.574219 554.394531 455.8125 553.273438 C 450.671875 552.066406 449.640625 552.066406 445.070312 553.296875 M 572.996094 553.554688 C 563.210938 557.058594 557.371094 565.574219 557.371094 576.339844 C 557.371094 586.601562 561.699219 594.082031 570.125 598.378906 C 574.554688 600.640625 575.777344 600.933594 580.753906 600.933594 C 585.640625 600.933594 587.019531 600.613281 591.3125 598.5 C 599.929688 594.261719 604.246094 586.847656 604.246094 576.3125 C 604.246094 566.894531 599.355469 558.652344 591.476562 554.800781 C 586.128906 552.183594 578.292969 551.65625 572.996094 553.554688 M 176.074219 554.492188 C 171.554688 556.230469 166.257812 561.257812 163.972656 565.984375 C 161.503906 571.085938 161.179688 580.46875 163.285156 586.046875 C 165.347656 591.519531 169.71875 596.355469 174.890625 598.898438 C 180.542969 601.671875 188.828125 601.792969 194.65625 599.1875 C 199.679688 596.945312 205.238281 590.90625 207.023438 585.761719 C 208.917969 580.308594 208.757812 571.335938 206.683594 566.703125 C 204.332031 561.453125 199.074219 556.234375 194.351562 554.46875 C 189.117188 552.507812 181.203125 552.519531 176.074219 554.492188 M 535.757812 554.625 C 535.539062 555.53125 535.449219 566.164062 535.5625 578.246094 L 535.765625 600.21875 L 543.824219 600.21875 L 544.015625 577.601562 C 544.15625 561.523438 543.96875 554.695312 543.378906 553.980469 C 542.90625 553.414062 541.164062 552.980469 539.351562 552.980469 C 536.648438 552.980469 536.097656 553.230469 535.757812 554.625 M 618.335938 576.558594 L 618.53125 600.21875 L 625.855469 600.21875 L 626.222656 583.960938 L 626.585938 567.703125 L 637.207031 583.472656 C 643.046875 592.148438 648.214844 599.566406 648.6875 599.960938 C 649.164062 600.351562 650.976562 600.574219 652.71875 600.449219 L 655.882812 600.21875 L 655.882812 553.34375 L 653.78125 553.105469 C 652.625 552.972656 650.871094 553.066406 649.886719 553.3125 L 648.09375 553.765625 L 648.328125 570.480469 L 648.558594 587.195312 L 625.855469 553.34375 L 622 553.121094 L 618.144531 552.902344 Z M 100.128906 554.167969 C 99.84375 554.453125 99.609375 564.851562 99.609375 577.269531 L 99.609375 599.851562 L 107.636719 599.851562 L 107.835938 583.652344 L 108.03125 567.453125 L 112.738281 578.710938 C 115.324219 584.898438 118.511719 592.335938 119.816406 595.230469 C 122.101562 600.300781 122.261719 600.472656 124.234375 599.945312 C 126.066406 599.457031 126.976562 597.816406 133.0625 584.0625 C 137.355469 574.355469 139.886719 569.398438 139.960938 570.554688 C 140.027344 571.5625 140.285156 578.484375 140.535156 585.9375 L 140.992188 599.488281 L 144.546875 599.894531 C 147.117188 600.191406 148.207031 600.035156 148.472656 599.335938 C 148.679688 598.808594 148.5625 588.40625 148.214844 576.226562 L 147.582031 554.078125 L 138.25 554.078125 L 131.382812 569.824219 C 127.605469 578.484375 124.414062 585.871094 124.292969 586.238281 C 124.167969 586.601562 120.929688 579.515625 117.089844 570.488281 L 110.109375 554.078125 L 105.378906 553.863281 C 102.777344 553.746094 100.414062 553.882812 100.128906 554.167969 M 221.921875 577.175781 L 221.921875 600.789062 L 231.996094 600.375 C 243.507812 599.894531 246.527344 599.210938 251.429688 595.953125 C 265.488281 586.621094 263.949219 562.542969 248.867188 555.859375 C 245.46875 554.355469 243.582031 554.109375 233.460938 553.851562 L 221.921875 553.558594 Z M 285.339844 554.347656 C 284.816406 555.191406 268.953125 597.824219 268.660156 599.167969 C 268.484375 599.980469 269.34375 600.21875 272.460938 600.21875 L 276.488281 600.21875 L 280.324219 589.234375 L 299.175781 588.992188 L 300.917969 593.875 C 301.875 596.558594 302.992188 599.167969 303.394531 599.671875 C 304.140625 600.589844 309.921875 600.964844 310.742188 600.144531 C 311.214844 599.671875 308.558594 592 299.792969 568.542969 L 294.253906 553.710938 L 289.992188 553.710938 C 287.648438 553.710938 285.554688 553.996094 285.339844 554.347656 M 346.6875 569.992188 C 346.9375 578.964844 347.148438 589.515625 347.15625 593.445312 L 347.167969 600.585938 L 354.492188 600.585938 L 354.492188 580.808594 L 373.613281 580.808594 L 373.167969 573.121094 L 354.492188 573.121094 L 354.492188 561.035156 L 376.546875 561.035156 L 376.320312 557.554688 L 376.097656 554.078125 L 361.167969 553.878906 L 346.234375 553.679688 Z M 397.421875 554.308594 C 396.394531 555.96875 380.859375 598.738281 380.859375 599.902344 C 380.859375 600.277344 382.523438 600.585938 384.558594 600.585938 C 388.648438 600.585938 388.199219 601.121094 391.390625 592.425781 L 392.640625 589.023438 L 401.789062 588.910156 L 410.933594 588.800781 L 411.890625 591.214844 C 412.65625 593.171875 413.402344 595.136719 414.125 597.105469 L 415.402344 600.585938 L 419.371094 600.585938 C 421.554688 600.585938 423.339844 600.261719 423.339844 599.871094 C 423.339844 599.476562 420.25 590.988281 416.472656 581.007812 C 412.695312 571.03125 408.863281 560.804688 407.953125 558.289062 L 406.296875 553.710938 L 402.042969 553.710938 C 399.707031 553.710938 397.625 553.980469 397.421875 554.308594 M 482.265625 554.632812 C 482.070312 555.140625 482 565.605469 482.105469 577.886719 L 482.300781 600.21875 L 486.144531 600.441406 L 489.992188 600.664062 L 489.992188 580.078125 L 511.921875 580.078125 L 512.328125 600.21875 L 519.652344 600.21875 L 519.847656 576.964844 L 520.039062 553.710938 L 511.960938 553.710938 L 511.960938 572.019531 L 489.988281 572.019531 L 489.988281 553.710938 L 486.304688 553.710938 C 484.015625 553.710938 482.484375 554.0625 482.265625 554.632812 M 177.910156 562.007812 C 173.171875 564.511719 170.40625 569.328125 170.042969 575.710938 C 169.710938 581.601562 170.734375 585.144531 173.769531 588.601562 C 176.976562 592.253906 179.839844 593.511719 184.957031 593.527344 C 196.398438 593.554688 203.65625 582.097656 199.554688 570.476562 C 196.484375 561.765625 186.074219 557.695312 177.910156 562.007812 M 572.328125 562.683594 C 570.167969 564.144531 568.15625 566.308594 567.121094 568.292969 C 564.046875 574.164062 565.289062 584.257812 569.679688 589.113281 C 573.894531 593.773438 582.625 594.910156 588.363281 591.550781 C 594.214844 588.121094 596.527344 583.125 596.066406 574.917969 C 595.546875 565.75 589.855469 560.335938 580.710938 560.316406 C 576.425781 560.304688 575.433594 560.585938 572.328125 562.683594 M 229.980469 577.152344 L 229.980469 593.480469 L 236.160156 593.042969 C 246.257812 592.332031 250.878906 588.8125 252.761719 580.394531 C 255.332031 568.894531 249.414062 562.039062 236.199219 561.21875 L 229.980469 560.828125 Z M 289.128906 564.117188 C 288.929688 565.039062 287.46875 569.421875 285.882812 573.851562 L 283 581.910156 L 289.8125 581.910156 C 293.5625 581.910156 296.628906 581.84375 296.628906 581.761719 C 296.632812 581.332031 290.03125 562.980469 289.78125 562.730469 C 289.621094 562.570312 289.328125 563.195312 289.128906 564.117188 M 398.605469 571.515625 C 396.898438 576.425781 395.503906 580.773438 395.507812 581.175781 C 395.507812 581.609375 398.195312 581.910156 402.109375 581.910156 C 407.683594 581.910156 408.636719 581.738281 408.261719 580.808594 C 408.019531 580.207031 406.503906 575.921875 404.894531 571.289062 C 403.289062 566.65625 401.910156 562.804688 401.835938 562.726562 C 401.761719 562.652344 400.308594 566.609375 398.605469 571.515625 " fill-opacity="1" fill-rule="evenodd"/></svg>